# Blender 3.6.1
# www.blender.org
mtllib horserdeath1.mtl
o Cube.001
v 0.000773 1.261943 0.086234
v 0.156966 1.248797 0.086234
v 0.378845 1.729034 0.086234
v 0.341915 1.434522 0.086234
v 0.377436 1.977435 0.086234
v 0.182957 2.280816 0.086234
v 0.325823 2.228835 0.113858
v 0.000773 2.327545 0.086234
v 0.000773 1.290480 -0.304363
v 0.102353 1.277335 -0.304961
v 0.380849 1.757572 -0.308831
v 0.335443 1.463059 -0.307403
v 0.377689 2.005973 -0.306638
v 0.245661 2.476953 -0.343416
v 0.253492 2.442490 -0.335513
v 0.000773 2.575664 -0.343416
v 0.000773 1.306334 -0.669863
v 0.102353 1.293189 -0.671023
v 0.380208 1.773426 -0.677656
v 0.335443 1.478913 -0.675470
v 0.378496 1.917718 -0.676002
v 0.312942 2.103323 -0.758887
v 0.377648 2.029601 -0.671130
v 0.250564 1.009771 -0.373755
v 0.000773 1.422490 -0.793804
v 0.118255 1.404276 -0.812717
v 0.335469 1.657274 -0.908445
v 0.326092 1.542163 -0.841259
v 0.335349 1.739302 -0.924677
v 0.308016 1.938981 -0.973713
v 0.347898 1.828781 -0.921806
v 0.000773 1.949232 -1.009090
v 0.000773 1.619335 -0.925362
v 0.000773 1.763627 -0.927113
v 0.149077 1.625499 -0.925362
v 0.155138 1.762308 -0.927113
v 0.182957 2.701164 -0.602570
v 0.000773 2.799875 -0.602570
v 0.182957 2.359242 -0.975118
v 0.145743 2.970300 -1.274155
v 0.182957 2.193132 -1.173188
v 0.000773 2.205152 -1.222270
v 0.383855 1.009771 -0.375151
v 0.250564 1.009771 -0.583085
v 0.383855 1.009771 -0.585628
v 0.332667 0.668466 -0.302191
v 0.465958 0.668466 -0.303587
v 0.332006 0.668466 -0.511520
v 0.466632 0.668466 -0.514064
v 0.351586 0.560202 -0.336631
v 0.447050 0.560202 -0.337572
v 0.349863 0.560202 -0.477723
v 0.448785 0.560202 -0.479437
v 0.331886 0.275475 -0.280970
v 0.466776 0.275475 -0.281911
v 0.331189 0.275475 -0.422062
v 0.467459 0.275475 -0.423776
v 0.325075 0.183362 -0.309673
v 0.473581 0.183533 -0.310599
v 0.327068 0.208928 -0.448430
v 0.471586 0.209239 -0.450115
v 0.319894 0.039903 -0.367131
v 0.478768 0.040073 -0.368057
v 0.319894 0.083819 -0.585403
v 0.478768 0.084130 -0.587089
v 0.319809 -0.055059 -0.386235
v 0.478682 -0.054889 -0.387160
v 0.319809 -0.011145 -0.604507
v 0.478682 -0.010834 -0.606192
v 0.159127 2.921229 -0.937962
v 0.000773 2.991979 -0.926432
v 0.159127 2.641696 -1.209586
v 0.151480 3.120497 -1.556543
v 0.159127 2.443391 -1.379696
v 0.000773 2.417606 -1.359801
v 0.000773 3.047826 -1.288175
v 0.140373 2.654643 -1.386468
v 0.091480 2.752655 -1.706941
v 0.140373 2.432482 -1.429963
v 0.000773 2.406698 -1.410069
v 0.000773 3.048027 -1.506250
v 0.091478 2.628262 -1.527008
v 0.091484 2.397160 -1.944803
v 0.091478 2.406423 -1.519594
v 0.000773 2.380638 -1.499699
v 0.000773 2.847667 -1.734797
v 0.091480 2.563117 -1.766234
v 0.000773 2.658129 -1.794092
v 0.091480 2.310963 -1.683049
v 0.000773 2.285178 -1.663156
v 0.000773 2.492172 -1.972660
v 0.091484 2.266458 -1.830157
v 0.000773 2.240672 -1.810261
v 0.091487 2.285228 -2.000654
v 0.000773 2.380240 -2.028512
v 0.091487 2.199126 -1.934432
v 0.000773 2.173340 -1.914537
v 0.091478 2.943116 -1.455222
v 0.091478 2.931041 -1.493539
v 0.045840 3.009409 -1.487077
v 0.110079 2.964641 -1.417694
v 0.151480 3.125376 -1.566556
v 0.137101 3.134855 -1.555744
v 0.157340 3.135962 -1.542660
v -0.155421 1.248797 0.086234
v -0.377300 1.729034 0.086234
v -0.340370 1.434522 0.086234
v -0.375890 1.977435 0.086234
v -0.181411 2.280816 0.086234
v -0.324277 2.228835 0.113858
v -0.100807 1.277335 -0.304961
v -0.379303 1.757572 -0.308831
v -0.333898 1.463059 -0.307403
v -0.376144 2.005973 -0.306638
v -0.244115 2.476953 -0.343416
v -0.251946 2.442490 -0.335513
v -0.100807 1.293189 -0.671023
v -0.378662 1.773426 -0.677656
v -0.333898 1.478913 -0.675470
v -0.376950 1.917718 -0.676002
v -0.311396 2.103323 -0.758887
v -0.376103 2.029601 -0.671130
v -0.249018 1.009771 -0.373755
v -0.116709 1.404276 -0.812717
v -0.333923 1.657274 -0.908445
v -0.324546 1.542163 -0.841259
v -0.333803 1.739302 -0.924677
v -0.306470 1.938981 -0.973713
v -0.346352 1.828781 -0.921806
v -0.147532 1.625499 -0.925362
v -0.153592 1.762308 -0.927113
v -0.181411 2.701164 -0.602570
v -0.181411 2.359242 -0.975118
v -0.144198 2.970300 -1.274155
v -0.181411 2.193132 -1.173188
v -0.382309 1.009771 -0.375151
v -0.249018 1.009771 -0.583085
v -0.382309 1.009771 -0.585628
v -0.331121 0.668466 -0.302191
v -0.464412 0.668466 -0.303587
v -0.330460 0.668466 -0.511520
v -0.465086 0.668466 -0.514064
v -0.350040 0.560203 -0.336631
v -0.445504 0.560203 -0.337572
v -0.348317 0.560203 -0.477723
v -0.447239 0.560203 -0.479437
v -0.330340 0.275475 -0.280970
v -0.465230 0.275475 -0.281911
v -0.329643 0.275475 -0.422062
v -0.465914 0.275475 -0.423776
v -0.323529 0.183362 -0.309673
v -0.472036 0.183533 -0.310599
v -0.325522 0.208928 -0.448430
v -0.470040 0.209239 -0.450115
v -0.318348 0.039903 -0.367131
v -0.477222 0.040073 -0.368057
v -0.318348 0.083818 -0.585403
v -0.477222 0.084129 -0.587089
v -0.318263 -0.055060 -0.386235
v -0.477137 -0.054890 -0.387160
v -0.318263 -0.011145 -0.604507
v -0.477137 -0.010834 -0.606192
v -0.157581 2.921229 -0.937962
v -0.157581 2.641696 -1.209586
v -0.149934 3.120497 -1.556543
v -0.157581 2.443391 -1.379696
v -0.138827 2.654643 -1.386468
v -0.089934 2.752655 -1.706941
v -0.138827 2.432482 -1.429963
v -0.089932 2.628262 -1.527008
v -0.089938 2.397160 -1.944803
v -0.089932 2.406423 -1.519594
v -0.089934 2.563117 -1.766234
v -0.089934 2.310963 -1.683049
v -0.089938 2.266458 -1.830157
v -0.089941 2.285228 -2.000654
v -0.089941 2.199126 -1.934432
v -0.089932 2.943116 -1.455222
v -0.089932 2.931041 -1.493539
v -0.044294 3.009409 -1.487077
v -0.108533 2.964641 -1.417694
v -0.149934 3.125376 -1.566556
v -0.135555 3.134855 -1.555744
v -0.155795 3.135962 -1.542660
v -0.193334 1.619267 0.068738
v -0.203875 1.940812 0.057109
v 0.000773 1.643701 0.066584
v 0.000773 1.975673 0.054453
v 0.194879 1.619267 0.068738
v 0.205421 1.940811 0.057109
vn 0.5780 0.3521 0.7361
vn 0.6826 0.0647 0.7279
vn 0.9909 0.1346 0.0014
vn 0.8156 0.5743 0.0713
vn -0.0000 0.5316 0.8470
vn 0.1695 0.4845 0.8582
vn 0.6622 0.7052 0.2532
vn -0.0000 0.8252 0.5648
vn 0.6676 -0.3727 0.6445
vn 0.2612 -0.7553 0.6012
vn -0.0794 -0.9665 0.2442
vn 0.9538 -0.2690 0.1341
vn -0.0000 -0.6916 0.7223
vn -0.0000 -0.9985 -0.0545
vn 0.6814 -0.0333 0.7312
vn 0.9978 -0.0667 -0.0050
vn -0.1526 -0.7999 -0.5805
vn -0.5916 -0.4000 -0.7000
vn -0.6550 -0.2783 0.7025
vn 0.9949 -0.0613 -0.0806
vn 0.9976 0.0301 -0.0616
vn 0.9604 0.2489 -0.1253
vn 0.8919 -0.3162 -0.3234
vn -0.0000 -0.9263 -0.3768
vn 0.9251 0.3073 -0.2233
vn 0.6792 -0.0571 -0.7317
vn 0.6950 -0.3158 -0.6460
vn 0.9805 0.1569 -0.1182
vn -0.0000 -0.6343 -0.7731
vn 0.1544 -0.6913 -0.7059
vn 0.7760 -0.0570 -0.6282
vn -0.0000 -0.4974 -0.8675
vn -0.0000 -0.6019 -0.7985
vn 0.6937 -0.4780 -0.5388
vn 0.6684 -0.2241 -0.7092
vn 0.6428 -0.1137 -0.7575
vn 0.0526 -0.1890 -0.9806
vn 0.0470 -0.2825 -0.9581
vn -0.0000 -0.2703 -0.9628
vn -0.0000 -0.1888 -0.9820
vn 0.7799 0.5569 0.2855
vn 0.9966 0.0458 -0.0680
vn 0.8045 0.5663 0.1790
vn -0.0000 -0.9056 -0.4241
vn 0.8895 -0.3632 -0.2771
vn -0.0000 0.8246 0.5657
vn -0.6646 -0.3130 -0.6785
vn -0.6276 -0.1428 0.7653
vn 0.7367 0.1508 0.6592
vn 0.7051 -0.0393 -0.7080
vn 0.7352 -0.1262 -0.6660
vn 0.6999 -0.0098 0.7142
vn 0.7389 -0.0813 0.6689
vn 0.6829 -0.2268 -0.6945
vn -0.6945 -0.2230 -0.6841
vn 0.7701 0.1194 -0.6267
vn -0.7782 0.1174 -0.6169
vn -0.7327 -0.0823 0.6756
vn -0.6511 -0.0046 0.7590
vn -0.7551 0.4031 -0.5171
vn -0.7052 -0.2014 0.6798
vn 0.6567 -0.0046 0.7541
vn 0.7481 0.4086 -0.5229
vn 0.7096 -0.2001 0.6756
vn 0.7355 -0.1773 0.6539
vn 0.6420 0.3823 -0.6646
vn -0.7313 -0.1779 0.6584
vn -0.6494 0.3806 -0.6584
vn -0.5805 -0.4531 -0.6766
vn -0.5761 -0.6797 0.4540
vn 0.5786 -0.6801 0.4502
vn 0.5742 -0.4512 -0.6832
vn -0.0000 -0.9809 0.1947
vn 0.7980 -0.5955 -0.0924
vn 0.9694 0.0578 -0.2384
vn -0.0000 0.9447 0.3278
vn -0.0000 0.9242 -0.3818
vn 0.3568 0.8671 -0.3477
vn 0.9483 0.0966 -0.3024
vn 0.8638 0.2305 -0.4481
vn -0.0000 0.6048 -0.7964
vn 0.8092 -0.5757 0.1173
vn 0.9851 0.0223 -0.1704
vn 0.8436 0.5327 -0.0680
vn -0.0000 0.9998 0.0221
vn 0.7948 -0.5578 0.2390
vn 0.9348 0.2107 -0.2860
vn 0.9798 -0.1345 -0.1483
vn -0.0000 -0.9352 0.3540
vn 0.9085 0.4031 -0.1100
vn -0.0000 0.4489 -0.8936
vn 0.8403 -0.4905 0.2309
vn 0.8867 0.2549 -0.3856
vn -0.0000 -0.9143 0.4051
vn 0.9811 -0.0503 -0.1869
vn 0.3765 0.1674 -0.9112
vn -0.3608 0.8312 -0.4230
vn 0.6826 0.6568 0.3204
vn 0.6203 -0.7351 -0.2736
vn 0.6248 -0.2353 -0.7445
vn -0.0000 0.6361 -0.7716
vn -0.0000 -0.9104 0.4138
vn -0.0000 0.1675 -0.9859
vn -0.0000 -0.9935 -0.1138
vn -0.5780 0.3521 0.7361
vn -0.8156 0.5743 0.0713
vn -0.9909 0.1346 0.0014
vn -0.6826 0.0647 0.7279
vn -0.6622 0.7052 0.2532
vn -0.1695 0.4845 0.8582
vn -0.6676 -0.3727 0.6445
vn -0.9538 -0.2690 0.1341
vn 0.0794 -0.9665 0.2442
vn -0.2612 -0.7553 0.6012
vn -0.6814 -0.0333 0.7312
vn -0.9978 -0.0667 -0.0050
vn 0.6550 -0.2783 0.7025
vn 0.5916 -0.4000 -0.7000
vn 0.1526 -0.7999 -0.5805
vn -0.9976 0.0301 -0.0616
vn -0.9949 -0.0612 -0.0806
vn -0.9604 0.2489 -0.1253
vn -0.8919 -0.3162 -0.3234
vn -0.9251 0.3073 -0.2233
vn -0.9805 0.1569 -0.1182
vn -0.6950 -0.3158 -0.6460
vn -0.6792 -0.0571 -0.7317
vn -0.1544 -0.6913 -0.7059
vn -0.7760 -0.0570 -0.6282
vn -0.6937 -0.4780 -0.5388
vn -0.6428 -0.1137 -0.7575
vn -0.6684 -0.2241 -0.7092
vn -0.0526 -0.1890 -0.9806
vn -0.0470 -0.2825 -0.9581
vn -0.7799 0.5569 0.2855
vn -0.8045 0.5663 0.1790
vn -0.9966 0.0458 -0.0680
vn -0.8895 -0.3632 -0.2771
vn 0.6276 -0.1428 0.7653
vn 0.6646 -0.3130 -0.6785
vn -0.7051 -0.0393 -0.7080
vn -0.7367 0.1508 0.6592
vn -0.7352 -0.1262 -0.6660
vn -0.6829 -0.2268 -0.6945
vn -0.7389 -0.0813 0.6689
vn -0.6999 -0.0098 0.7142
vn 0.6945 -0.2230 -0.6841
vn 0.7782 0.1174 -0.6169
vn -0.7701 0.1194 -0.6267
vn 0.7327 -0.0823 0.6756
vn 0.6511 -0.0046 0.7590
vn 0.7052 -0.2014 0.6798
vn 0.7551 0.4031 -0.5171
vn -0.6567 -0.0046 0.7541
vn -0.7481 0.4086 -0.5229
vn -0.6420 0.3823 -0.6646
vn -0.7355 -0.1773 0.6539
vn -0.7096 -0.2001 0.6756
vn 0.7313 -0.1779 0.6584
vn 0.5761 -0.6797 0.4540
vn 0.5805 -0.4531 -0.6766
vn 0.6494 0.3806 -0.6584
vn -0.5786 -0.6801 0.4502
vn -0.5742 -0.4512 -0.6832
vn -0.7980 -0.5955 -0.0924
vn -0.9694 0.0578 -0.2384
vn -0.8638 0.2305 -0.4481
vn -0.9483 0.0966 -0.3024
vn -0.3568 0.8671 -0.3477
vn -0.9851 0.0223 -0.1704
vn -0.8092 -0.5757 0.1173
vn -0.8436 0.5327 -0.0680
vn -0.9348 0.2107 -0.2860
vn -0.7948 -0.5578 0.2390
vn -0.9798 -0.1345 -0.1483
vn -0.9085 0.4031 -0.1101
vn -0.8867 0.2549 -0.3856
vn -0.8403 -0.4905 0.2309
vn -0.9811 -0.0503 -0.1869
vn -0.6826 0.6568 0.3204
vn 0.3608 0.8312 -0.4230
vn -0.3765 0.1673 -0.9112
vn -0.6248 -0.2353 -0.7445
vn -0.6203 -0.7351 -0.2736
vn 0.0504 0.0369 0.9980
vn -0.0000 0.0424 0.9991
vn -0.0504 0.0369 0.9980
vn 0.0887 -0.0290 0.9956
vn -0.0000 -0.0328 0.9995
vn -0.0887 -0.0290 0.9956
vt 0.493052 0.783938
vt 0.498278 0.736376
vt 0.572605 0.741775
vt 0.557866 0.816932
vt 0.498278 0.771363
vt 0.498278 0.786935
vt 0.579563 0.830879
vt 0.579563 0.818304
vt 0.498278 0.633663
vt 0.498278 0.598526
vt 0.572288 0.603925
vt 0.572750 0.639062
vt 0.498278 0.601013
vt 0.572175 0.606412
vt 0.498278 0.689381
vt 0.573020 0.694780
vt 0.564413 0.603925
vt 0.633668 0.606924
vt 0.617032 0.553304
vt 0.577429 0.553304
vt 0.642798 0.697780
vt 0.642485 0.725078
vt 0.641563 0.746245
vt 0.642384 0.642061
vt 0.641324 0.609411
vt 0.641543 0.606924
vt 0.658166 0.760193
vt 0.698809 0.729101
vt 0.736547 0.777184
vt 0.699075 0.808610
vt 0.633997 0.610861
vt 0.633777 0.613348
vt 0.657225 0.635324
vt 0.660804 0.631878
vt 0.688989 0.708252
vt 0.691262 0.733038
vt 0.697955 0.734977
vt 0.738287 0.783395
vt 0.729001 0.781121
vt 0.634838 0.645998
vt 0.678048 0.650997
vt 0.689483 0.685026
vt 0.689532 0.691324
vt 0.675095 0.648044
vt 0.678984 0.686010
vt 0.682446 0.691022
vt 0.682115 0.663724
vt 0.682115 0.672565
vt 0.682446 0.699863
vt 0.681937 0.688963
vt 0.681985 0.695261
vt 0.681442 0.712189
vt 0.628593 0.873298
vt 0.743433 0.862047
vt 0.692045 0.914932
vt 0.722387 0.784014
vt 0.731672 0.786288
vt 0.757692 0.826483
vt 0.761456 0.831361
vt 0.628593 0.860723
vt 0.596274 0.488733
vt 0.568155 0.489061
vt 0.634510 0.642061
vt 0.564875 0.639062
vt 0.577693 0.553304
vt 0.617513 0.553304
vt 0.626898 0.605882
vt 0.627739 0.641019
vt 0.610742 0.552263
vt 0.610261 0.552263
vt 0.596755 0.488733
vt 0.568419 0.489061
vt 0.570583 0.468251
vt 0.590532 0.468251
vt 0.589984 0.487691
vt 0.589503 0.487691
vt 0.583437 0.467209
vt 0.583761 0.467209
vt 0.571262 0.413342
vt 0.570938 0.413342
vt 0.590208 0.468251
vt 0.570405 0.468251
vt 0.559875 0.414383
vt 0.577709 0.414383
vt 0.582697 0.401793
vt 0.565305 0.396957
vt 0.560053 0.414383
vt 0.578033 0.414383
vt 0.583016 0.401852
vt 0.565480 0.396989
vt 0.576351 0.369848
vt 0.611555 0.374574
vt 0.576246 0.400811
vt 0.575927 0.400752
vt 0.576175 0.369816
vt 0.611236 0.374515
vt 0.613210 0.356221
vt 0.579790 0.351850
vt 0.579965 0.351882
vt 0.613529 0.356279
vt 0.775616 0.824530
vt 0.771852 0.819652
vt 0.781363 0.817588
vt 0.785126 0.822466
vt 0.776897 0.864496
vt 0.628593 0.883292
vt 0.692045 0.924925
vt 0.695037 0.811460
vt 0.732120 0.780309
vt 0.771189 0.827655
vt 0.739404 0.864891
vt 0.799559 0.938920
vt 0.795931 0.931614
vt 0.797154 0.916788
vt 0.837528 0.883039
vt 0.842798 0.901015
vt 0.786767 0.830013
vt 0.803724 0.825082
vt 0.803486 0.859505
vt 0.755649 0.924216
vt 0.759935 0.936454
vt 0.834648 0.807022
vt 0.848745 0.847181
vt 0.789905 0.919072
vt 0.783003 0.825134
vt 0.799960 0.820204
vt 0.760591 0.936932
vt 0.782805 0.923145
vt 0.854015 0.865156
vt 0.862479 0.798602
vt 0.882528 0.815784
vt 0.830884 0.802144
vt 0.809074 0.952631
vt 0.810968 0.953554
vt 0.808923 0.955347
vt 0.806447 0.955557
vt 0.882207 0.785864
vt 0.893095 0.794607
vt 0.887799 0.833759
vt 0.858715 0.793724
vt 0.898365 0.812582
vt 0.878443 0.780986
vt 0.498278 0.676544
vt 0.498278 0.672660
vt 0.498278 0.676544
vt 0.498278 0.730773
vt 0.498278 0.724837
s 1
usemtl Material.001
f 7/1/1 5/2/2 13/3/3 15/4/4
f 8/5/5 6/6/6 14/7/7 16/8/8
f 4/9/9 2/10/10 10/11/11 12/12/12
f 2/10/10 1/13/13 9/14/14 10/11/11
f 3/15/15 4/9/9 12/12/12 11/16/16
f 5/2/2 3/15/15 11/16/16 13/3/3
f 6/6/6 7/1/1 15/4/4 14/7/7
f 10/17/11 18/18/17 44/19/18 24/20/19
f 13/3/3 11/16/16 19/21/20 21/22/21
f 15/4/4 13/3/3 21/22/21 23/23/22
f 11/16/16 12/12/12 20/24/23 19/21/20
f 10/11/11 9/14/14 17/25/24 18/26/17
f 14/7/7 15/4/4 23/23/22 22/27/25
f 22/27/25 30/28/26 41/29/27 39/30/28
f 18/31/17 17/32/24 25/33/29 26/34/30
f 22/27/25 23/23/22 31/35/31 30/28/26
f 30/36/26 32/37/32 42/38/33 41/39/27
f 20/40/23 18/31/17 26/34/30 28/41/34
f 21/22/21 19/21/20 27/42/35 29/43/36
f 23/23/22 21/22/21 29/43/36 31/35/31
f 19/21/20 20/24/23 28/44/34 27/45/35
f 36/46/37 35/47/38 33/48/39 34/49/40
f 35/47/38 26/34/30 25/33/29 33/48/39
f 27/50/35 28/41/34 26/34/30 35/47/38
f 29/51/36 27/50/35 35/47/38 36/46/37
f 29/51/36 36/46/37 30/36/26 31/52/31
f 30/36/26 36/46/37 34/49/40 32/37/32
f 37/53/41 39/30/28 72/54/42 70/55/43
f 41/56/27 42/57/33 75/58/44 74/59/45
f 16/8/8 14/7/7 37/53/41 38/60/46
f 14/7/7 22/27/25 39/30/28 37/53/41
f 24/20/19 44/19/18 48/61/47 46/62/48
f 20/63/23 12/64/12 43/65/49 45/66/50
f 18/67/17 20/68/23 45/69/50 44/70/18
f 12/64/12 10/17/11 24/20/19 43/65/49
f 49/71/51 47/72/52 51/73/53 53/74/54
f 45/66/50 43/65/49 47/72/52 49/71/51
f 44/70/18 45/69/50 49/75/51 48/76/47
f 43/65/49 24/20/19 46/62/48 47/72/52
f 52/77/55 53/78/54 57/79/56 56/80/57
f 48/76/47 49/75/51 53/78/54 52/77/55
f 46/62/48 48/61/47 52/81/55 50/82/58
f 47/72/52 46/62/48 50/82/58 51/73/53
f 54/83/59 56/84/57 60/85/60 58/86/61
f 50/82/58 52/81/55 56/84/57 54/83/59
f 51/73/53 50/82/58 54/83/59 55/87/62
f 53/74/54 51/73/53 55/87/62 57/88/56
f 61/89/63 59/90/64 63/91/65 65/92/66
f 55/87/62 54/83/59 58/86/61 59/90/64
f 57/88/56 55/87/62 59/90/64 61/89/63
f 56/80/57 57/79/56 61/93/63 60/94/60
f 62/95/67 64/96/68 68/97/69 66/98/70
f 60/85/60 61/89/63 65/92/66 64/96/68
f 58/86/61 60/85/60 64/96/68 62/95/67
f 59/90/64 58/86/61 62/95/67 63/91/65
f 67/99/71 66/98/70 68/97/69 69/100/72
f 63/91/65 62/95/67 66/98/70 67/99/71
f 65/92/66 63/91/65 67/99/71 69/100/72
f 64/96/68 65/92/66 69/100/72 68/97/69
f 74/101/45 75/102/44 80/103/73 79/104/74
f 72/54/42 74/101/45 79/104/74 77/105/75
f 38/106/46 37/53/41 70/55/43 71/107/76
f 39/108/28 41/109/27 74/110/45 72/111/42
f 81/112/77 100/113/78 99/114/79 78/115/80 86/116/81
f 77/105/75 79/117/74 84/118/82 82/119/83
f 70/55/43 72/54/42 77/105/75 40/120/84
f 71/107/76 70/55/43 40/120/84 76/121/85
f 82/119/83 84/118/82 89/122/86 87/123/87
f 99/114/79 98/124/88 82/119/83 87/123/87 78/115/80
f 79/117/74 80/125/73 85/126/89 84/118/82
f 76/127/85 40/120/84 101/128/90 100/113/78 81/112/77
f 86/116/81 78/115/80 87/123/87 88/129/91
f 87/123/87 89/122/86 92/130/92 83/131/93
f 84/118/82 85/126/89 90/132/94 89/122/86
f 73/133/95 102/134/96 103/135/97 104/136/98
f 83/131/93 92/130/92 96/137/99 94/138/100
f 88/129/91 87/123/87 83/131/93 91/139/101
f 89/122/86 90/132/94 93/140/102 92/130/92
f 95/141/103 94/138/100 96/137/99 97/142/104
f 91/139/101 83/131/93 94/138/100 95/141/103
f 92/130/92 93/140/102 97/142/104 96/137/99
f 100/113/78 101/128/90 104/136/98 103/135/97
f 40/120/84 77/105/75 82/119/83 98/124/88 101/128/90
f 98/124/88 99/114/79 102/134/96 73/133/95
f 99/114/79 100/113/78 103/135/97 102/134/96
f 101/128/90 98/124/88 73/133/95 104/136/98
f 110/1/105 116/4/106 114/3/107 108/2/108
f 8/5/5 16/8/8 115/7/109 109/6/110
f 107/9/111 113/12/112 111/11/113 105/10/114
f 105/10/114 111/11/113 9/14/14 1/13/13
f 106/15/115 112/16/116 113/12/112 107/9/111
f 108/2/108 114/3/107 112/16/116 106/15/115
f 109/6/110 115/7/109 116/4/106 110/1/105
f 111/17/113 123/20/117 137/19/118 117/18/119
f 114/3/107 120/22/120 118/21/121 112/16/116
f 116/4/106 122/23/122 120/22/120 114/3/107
f 112/16/116 118/21/121 119/24/123 113/12/112
f 111/11/113 117/26/119 17/25/24 9/14/14
f 115/7/109 121/27/124 122/23/122 116/4/106
f 121/27/124 133/30/125 135/29/126 128/28/127
f 117/31/119 124/34/128 25/33/29 17/32/24
f 121/27/124 128/28/127 129/35/129 122/23/122
f 128/36/127 135/39/126 42/38/33 32/37/32
f 119/40/123 126/41/130 124/34/128 117/31/119
f 120/22/120 127/43/131 125/42/132 118/21/121
f 122/23/122 129/35/129 127/43/131 120/22/120
f 118/21/121 125/45/132 126/44/130 119/24/123
f 131/46/133 34/49/40 33/48/39 130/47/134
f 130/47/134 33/48/39 25/33/29 124/34/128
f 125/50/132 130/47/134 124/34/128 126/41/130
f 127/51/131 131/46/133 130/47/134 125/50/132
f 127/51/131 129/52/129 128/36/127 131/46/133
f 128/36/127 32/37/32 34/49/40 131/46/133
f 132/53/135 163/55/136 164/54/137 133/30/125
f 135/56/126 166/59/138 75/58/44 42/57/33
f 16/8/8 38/60/46 132/53/135 115/7/109
f 115/7/109 132/53/135 133/30/125 121/27/124
f 123/20/117 139/62/139 141/61/140 137/19/118
f 119/63/123 138/66/141 136/65/142 113/64/112
f 117/67/119 137/70/118 138/69/141 119/68/123
f 113/64/112 136/65/142 123/20/117 111/17/113
f 142/71/143 146/74/144 144/73/145 140/72/146
f 138/66/141 142/71/143 140/72/146 136/65/142
f 137/70/118 141/76/140 142/75/143 138/69/141
f 136/65/142 140/72/146 139/62/139 123/20/117
f 145/77/147 149/80/148 150/79/149 146/78/144
f 141/76/140 145/77/147 146/78/144 142/75/143
f 139/62/139 143/82/150 145/81/147 141/61/140
f 140/72/146 144/73/145 143/82/150 139/62/139
f 147/83/151 151/86/152 153/85/153 149/84/148
f 143/82/150 147/83/151 149/84/148 145/81/147
f 144/73/145 148/87/154 147/83/151 143/82/150
f 146/74/144 150/88/149 148/87/154 144/73/145
f 154/89/155 158/92/156 156/91/157 152/90/158
f 148/87/154 152/90/158 151/86/152 147/83/151
f 150/88/149 154/89/155 152/90/158 148/87/154
f 149/80/148 153/94/153 154/93/155 150/79/149
f 155/95/159 159/98/160 161/97/161 157/96/162
f 153/85/153 157/96/162 158/92/156 154/89/155
f 151/86/152 155/95/159 157/96/162 153/85/153
f 152/90/158 156/91/157 155/95/159 151/86/152
f 160/99/163 162/100/164 161/97/161 159/98/160
f 156/91/157 160/99/163 159/98/160 155/95/159
f 158/92/156 162/100/164 160/99/163 156/91/157
f 157/96/162 161/97/161 162/100/164 158/92/156
f 166/101/138 169/104/165 80/103/73 75/102/44
f 164/54/137 167/105/166 169/104/165 166/101/138
f 38/106/46 71/107/76 163/55/136 132/53/135
f 133/108/125 164/111/137 166/110/138 135/109/126
f 81/112/77 86/116/81 168/115/167 179/114/168 180/113/169
f 167/105/166 170/119/170 172/118/171 169/117/165
f 163/55/136 134/120/172 167/105/166 164/54/137
f 71/107/76 76/121/85 134/120/172 163/55/136
f 170/119/170 173/123/173 174/122/174 172/118/171
f 179/114/168 168/115/167 173/123/173 170/119/170 178/124/175
f 169/117/165 172/118/171 85/126/89 80/125/73
f 76/127/85 81/112/77 180/113/169 181/128/176 134/120/172
f 86/116/81 88/129/91 173/123/173 168/115/167
f 173/123/173 171/131/177 175/130/178 174/122/174
f 172/118/171 174/122/174 90/132/94 85/126/89
f 165/133/179 184/136/180 183/135/181 182/134/182
f 171/131/177 176/138/183 177/137/184 175/130/178
f 88/129/91 91/139/101 171/131/177 173/123/173
f 174/122/174 175/130/178 93/140/102 90/132/94
f 95/141/103 97/142/104 177/137/184 176/138/183
f 91/139/101 95/141/103 176/138/183 171/131/177
f 175/130/178 177/137/184 97/142/104 93/140/102
f 180/113/169 183/135/181 184/136/180 181/128/176
f 134/120/172 181/128/176 178/124/175 170/119/170 167/105/166
f 178/124/175 165/133/179 182/134/182 179/114/168
f 179/114/168 182/134/182 183/135/181 180/113/169
f 181/128/176 184/136/180 165/133/179 178/124/175
f 107/9/111 105/10/114 185/143/185 106/15/115
f 105/10/114 1/13/13 187/144/186 185/143/185
f 1/13/13 2/10/10 189/145/187 187/144/186
f 2/10/10 4/9/9 3/15/15 189/145/187
f 106/15/115 185/143/185 186/146/188 108/2/108
f 185/143/185 187/144/186 188/147/189 186/146/188
f 187/144/186 189/145/187 190/146/190 188/147/189
f 189/145/187 3/15/15 5/2/2 190/146/190
f 108/2/108 186/146/188 109/6/110 110/1/105
f 186/146/188 188/147/189 8/5/5 109/6/110
f 188/147/189 190/146/190 6/6/6 8/5/5
f 190/146/190 5/2/2 7/1/1 6/6/6
