# Blender 4.0.2
# www.blender.org
mtllib soccerball.mtl
o Soccer
v -0.126717 -0.393857 0.092065
v -0.126717 -0.393857 -0.092066
v 0.048403 -0.393856 -0.148965
v 0.156633 -0.393856 0.000000
v 0.048403 -0.393856 0.148965
v 0.293263 -0.289479 0.099266
v 0.390067 -0.132847 0.099267
v 0.341665 -0.036042 0.248232
v 0.214947 -0.132847 0.340297
v 0.185033 -0.289479 0.248232
v -0.178905 -0.289479 0.252685
v -0.003785 -0.289479 0.309583
v 0.026127 -0.132847 0.401649
v -0.130503 -0.036041 0.401649
v -0.257220 -0.132847 0.309584
v -0.295604 -0.289479 -0.092066
v -0.295604 -0.289479 0.092066
v -0.373921 -0.132847 0.148963
v -0.422322 -0.036040 0.000000
v -0.373921 -0.132847 -0.148963
v -0.003785 -0.289479 -0.309583
v -0.178905 -0.289479 -0.252685
v -0.257220 -0.132847 -0.309584
v -0.130503 -0.036041 -0.401649
v 0.026127 -0.132847 -0.401649
v 0.390067 -0.132847 -0.099267
v 0.293263 -0.289479 -0.099266
v 0.185033 -0.289479 -0.248232
v 0.214947 -0.132847 -0.340297
v 0.341665 -0.036042 -0.248232
v -0.026127 0.132847 0.401649
v 0.130503 0.036041 0.401649
v 0.257220 0.132847 0.309584
v 0.178905 0.289479 0.252685
v 0.003785 0.289479 0.309583
v -0.390067 0.132847 0.099267
v -0.341665 0.036042 0.248232
v -0.214947 0.132847 0.340297
v -0.185033 0.289479 0.248232
v -0.293263 0.289479 0.099266
v -0.214947 0.132847 -0.340297
v -0.341665 0.036042 -0.248232
v -0.390067 0.132847 -0.099267
v -0.293263 0.289479 -0.099266
v -0.185033 0.289479 -0.248232
v 0.257220 0.132847 -0.309584
v 0.130503 0.036041 -0.401649
v -0.026127 0.132847 -0.401649
v 0.003785 0.289479 -0.309583
v 0.178905 0.289479 -0.252685
v 0.373921 0.132847 0.148963
v 0.422322 0.036040 0.000000
v 0.373921 0.132847 -0.148963
v 0.295604 0.289479 -0.092066
v 0.295604 0.289479 0.092066
v -0.048403 0.393856 0.148965
v 0.126717 0.393857 0.092065
v 0.126717 0.393857 -0.092066
v -0.048403 0.393856 -0.148965
v -0.156633 0.393856 0.000000
vn 0.6977 -0.6686 0.2573
vn 0.3436 -0.9391 -0.0000
vn 0.6977 -0.6686 -0.2573
vn -0.2780 -0.9391 -0.2020
vn -0.7157 -0.6686 -0.2020
vn -0.4132 -0.6686 -0.6182
vn 0.1062 -0.9391 0.3268
vn 0.4603 -0.6686 0.5840
vn -0.0291 -0.6686 0.7430
vn 0.1062 -0.9391 -0.3268
vn -0.0291 -0.6686 -0.7430
vn 0.4603 -0.6686 -0.5840
vn 0.0366 -0.3250 0.9450
vn 0.5259 -0.3250 0.7860
vn 0.3070 0.1127 0.9450
vn 0.8039 -0.1127 0.5840
vn 0.8875 0.3250 0.3268
vn 0.5850 0.3250 0.7430
vn 0.9100 -0.3250 0.2573
vn 0.9100 -0.3250 -0.2573
vn 0.9936 0.1127 -0.0000
vn -0.3070 -0.1127 0.9450
vn -0.0366 0.3250 0.9450
vn -0.5259 0.3250 0.7860
vn -0.9936 -0.1127 -0.0000
vn -0.9100 0.3250 0.2573
vn -0.9100 0.3250 -0.2573
vn -0.3070 -0.1127 -0.9450
vn -0.5259 0.3250 -0.7860
vn -0.0366 0.3250 -0.9450
vn -0.8875 -0.3250 0.3268
vn -0.5850 -0.3250 0.7430
vn -0.8039 0.1127 0.5840
vn -0.5850 -0.3250 -0.7430
vn -0.8875 -0.3250 -0.3268
vn -0.8039 0.1127 -0.5840
vn 0.5259 -0.3250 -0.7860
vn 0.0366 -0.3250 -0.9450
vn 0.3070 0.1127 -0.9450
vn 0.8039 -0.1127 -0.5840
vn 0.5850 0.3250 -0.7430
vn 0.8875 0.3250 -0.3268
vn 0.4132 0.6686 0.6182
vn 0.7157 0.6686 0.2020
vn 0.2780 0.9391 0.2020
vn -0.4603 0.6686 0.5840
vn 0.0291 0.6686 0.7430
vn -0.1062 0.9391 0.3268
vn -0.6977 0.6686 -0.2573
vn -0.6977 0.6686 0.2573
vn -0.3436 0.9391 -0.0000
vn 0.0291 0.6686 -0.7430
vn -0.4603 0.6686 -0.5840
vn -0.1062 0.9391 -0.3268
vn 0.7157 0.6686 -0.2020
vn 0.4132 0.6686 -0.6182
vn 0.2780 0.9391 -0.2020
vn -0.2780 -0.9391 0.2020
vn -0.4132 -0.6686 0.6182
vn -0.7157 -0.6686 0.2020
vt 0.904554 0.781225
vt 0.904554 0.707372
vt 0.964302 0.744299
vt 0.531761 0.552930
vt 0.591510 0.516002
vt 0.591510 0.589856
vt 0.836058 0.707371
vt 0.836059 0.781225
vt 0.776310 0.744299
vt 0.754356 0.452520
vt 0.740923 0.389988
vt 0.794334 0.435603
vt 0.533416 0.460588
vt 0.510595 0.400838
vt 0.570345 0.437766
vt 0.531762 0.345425
vt 0.591512 0.308497
vt 0.591512 0.382352
vt 0.925720 0.836639
vt 0.985468 0.799713
vt 0.962646 0.859462
vt 0.891405 0.510517
vt 0.956091 0.537891
vt 0.902679 0.583506
vt 0.533420 0.875596
vt 0.510598 0.815847
vt 0.570347 0.852773
vt 0.681173 0.645269
vt 0.740923 0.608342
vt 0.718101 0.668091
vt 0.770299 0.566588
vt 0.823712 0.520972
vt 0.834987 0.593962
vt 0.660006 0.589856
vt 0.660006 0.516001
vt 0.719756 0.552928
vt 0.823712 0.384070
vt 0.770300 0.338455
vt 0.834986 0.311080
vt 0.891404 0.394526
vt 0.902679 0.321536
vt 0.956091 0.367152
vt 0.660007 0.382353
vt 0.660007 0.308499
vt 0.719757 0.345426
vt 0.932057 0.635040
vt 0.985468 0.589425
vt 0.972035 0.651957
vt 0.591512 0.797359
vt 0.531765 0.760433
vt 0.591513 0.723506
vt 0.719756 0.760432
vt 0.660007 0.797358
vt 0.660008 0.723505
vt 0.985468 0.315618
vt 0.932056 0.270002
vt 0.972034 0.253085
vt 0.303922 0.495728
vt 0.389344 0.613299
vt 0.303923 0.730871
vt 0.165709 0.685964
vt 0.165709 0.540637
vt 0.271772 0.259484
vt 0.154200 0.174063
vt 0.199107 0.035849
vt 0.344434 0.035849
vt 0.389344 0.174062
vt 0.242525 0.398249
vt 0.124954 0.483671
vt 0.007383 0.398250
vt 0.052288 0.260035
vt 0.197615 0.260035
vt 0.266089 0.921655
vt 0.266089 0.776328
vt 0.404303 0.731422
vt 0.489726 0.848991
vt 0.404303 0.966561
vt 0.124953 0.259485
vt 0.007383 0.174062
vt 0.052292 0.035849
vt 0.197620 0.035849
vt 0.242525 0.174064
vt 0.243075 0.345455
vt 0.360647 0.260034
vt 0.478219 0.345456
vt 0.433309 0.483669
vt 0.287982 0.483669
vt 0.251129 0.731422
vt 0.389344 0.776327
vt 0.389344 0.921654
vt 0.251130 0.966564
vt 0.165708 0.848993
vt 0.251129 0.260034
vt 0.389344 0.304941
vt 0.389344 0.450268
vt 0.251130 0.495178
vt 0.165709 0.377606
vt 0.287985 0.035849
vt 0.433312 0.035849
vt 0.478219 0.174063
vt 0.360646 0.259484
vt 0.243075 0.174062
vt 0.197615 0.707858
vt 0.052288 0.707858
vt 0.007383 0.569643
vt 0.124954 0.484221
vt 0.242525 0.569644
vt 0.180115 0.731421
vt 0.265538 0.848991
vt 0.180115 0.966561
vt 0.041901 0.921654
vt 0.041901 0.776328
vt 0.266093 0.540637
vt 0.404306 0.495728
vt 0.489727 0.613299
vt 0.404307 0.730871
vt 0.266093 0.685964
vt 0.755143 0.688885
vt 0.814892 0.651958
vt 0.814893 0.836639
vt 0.755143 0.799712
vt 0.925719 0.651958
vt 0.985468 0.688885
vt 0.510595 0.497517
vt 0.570344 0.460589
vt 0.740923 0.515054
vt 0.794335 0.469439
vt 0.570344 0.645270
vt 0.510596 0.608344
vt 0.510595 0.290011
vt 0.570345 0.253085
vt 0.968549 0.425148
vt 0.903863 0.452521
vt 0.903863 0.452521
vt 0.968549 0.479895
vt 0.822528 0.651958
vt 0.757842 0.624584
vt 0.681173 0.460588
vt 0.740922 0.497515
vt 0.757842 0.280459
vt 0.822528 0.253085
vt 0.740923 0.815846
vt 0.681174 0.852772
vt 0.740922 0.400841
vt 0.681173 0.437767
vt 0.681173 0.253085
vt 0.740923 0.290013
vt 0.510598 0.705019
vt 0.570347 0.668092
vt 0.681174 0.668091
vt 0.740923 0.705019
vt 0.754357 0.452521
s 1
usemtl soccerball
f 6/1/1 4/2/2 27/3/3
f 2/4/4 16/5/5 22/6/6
f 5/7/7 10/8/8 12/9/9
f 3/10/10 21/11/11 28/12/12
f 13/13/13 9/14/14 32/15/15
f 8/16/16 51/17/17 33/18/18
f 7/19/19 26/20/20 52/21/21
f 14/22/22 31/23/23 38/24/24
f 19/25/25 36/26/26 43/27/27
f 24/28/28 41/29/29 48/30/30
f 18/31/31 15/32/32 37/33/33
f 23/34/34 20/35/35 42/36/36
f 29/37/37 25/38/38 47/39/39
f 30/40/40 46/41/41 53/42/42
f 34/43/43 55/44/44 57/45/45
f 39/46/46 35/47/47 56/48/48
f 44/49/49 40/50/50 60/51/51
f 49/52/52 45/53/53 59/54/54
f 54/55/55 50/56/56 58/57/57
f 1/58/58 2/59/4 3/60/10 4/61/2 5/62/7
f 6/63/1 7/64/19 8/65/16 9/66/14 10/67/8
f 11/68/59 12/69/9 13/70/13 14/71/22 15/72/32
f 16/73/5 17/74/60 18/75/31 19/76/25 20/77/35
f 21/78/11 22/79/6 23/80/34 24/81/28 25/82/38
f 26/83/20 27/84/3 28/85/12 29/86/37 30/87/40
f 31/88/23 32/89/15 33/90/18 34/91/43 35/92/47
f 36/93/26 37/94/33 38/95/24 39/96/46 40/97/50
f 41/98/29 42/99/36 43/100/27 44/101/49 45/102/53
f 46/103/41 47/104/39 48/105/30 49/106/52 50/107/56
f 51/108/17 52/109/21 53/110/42 54/111/55 55/112/44
f 56/113/48 57/114/45 58/115/57 59/116/54 60/117/51
f 11/118/59 1/119/58 5/7/7 12/9/9
f 4/2/2 6/1/1 10/8/8 5/7/7
f 9/120/14 13/121/13 12/9/9 10/8/8
f 26/20/20 7/19/19 6/1/1 27/3/3
f 3/122/10 28/123/12 27/3/3 4/2/2
f 16/5/5 2/4/4 1/124/58 17/125/60
f 15/32/32 18/31/31 17/126/60 11/127/59
f 21/128/11 3/129/10 2/4/4 22/6/6
f 20/35/35 23/34/34 22/6/6 16/5/5
f 25/38/38 29/37/37 28/12/12 21/11/11
f 51/17/17 8/16/16 7/130/19 52/131/21
f 30/40/40 53/42/42 52/132/21 26/133/20
f 31/23/23 14/22/22 13/134/13 32/135/15
f 8/16/16 33/18/18 32/15/15 9/14/14
f 36/136/26 19/137/25 18/31/31 37/33/33
f 14/22/22 38/24/24 37/33/33 15/32/32
f 41/29/29 24/28/28 23/34/34 42/36/36
f 19/138/25 43/139/27 42/36/36 20/35/35
f 46/41/41 30/40/40 29/37/37 47/39/39
f 24/140/28 48/141/30 47/39/39 25/38/38
f 55/44/44 34/43/43 33/18/18 51/17/17
f 35/47/47 39/46/46 38/24/24 31/23/23
f 40/50/50 44/49/49 43/27/27 36/26/26
f 45/53/53 49/52/52 48/142/30 41/143/29
f 50/56/56 54/55/55 53/42/42 46/41/41
f 56/144/48 35/145/47 34/43/43 57/45/45
f 54/146/55 58/147/57 57/45/45 55/44/44
f 60/51/51 40/50/50 39/148/46 56/149/48
f 59/54/54 45/53/53 44/49/49 60/51/51
f 58/150/57 50/151/56 49/52/52 59/54/54
f 1/152/58 11/127/59 17/126/60
