# Blender 3.6.1
# www.blender.org
mtllib Windmill1.mtl
o SpinnyThings
v -1.000000 0.053350 2.251412
v -1.000000 2.053350 2.251412
v -1.000000 0.053350 -2.251412
v -1.000000 2.053350 -2.251412
v 1.000000 0.053350 2.251412
v 1.000000 2.053350 2.251412
v 1.000000 0.053350 -2.251412
v 1.000000 2.053350 -2.251412
v -0.728276 3.838207 1.639649
v -0.728276 3.838207 -1.639649
v 0.728276 3.838207 1.639649
v 0.728276 3.838207 -1.639649
v -0.474612 5.788377 1.068547
v -0.474612 5.788377 -1.068547
v 0.478698 5.787910 1.067951
v 0.478745 5.787905 -1.069149
v -0.348102 7.043412 1.423574
v -0.348917 7.107741 -1.501866
v 0.992097 7.178862 1.419611
v 0.973694 7.065044 -1.556265
v -0.697705 7.503918 1.735746
v -0.695281 7.503640 -1.758921
v 1.160366 8.479109 1.072727
v 1.162338 8.478884 -1.260176
v -0.676696 9.897524 1.732685
v -0.673940 9.897208 -1.762030
v 1.236577 9.400831 1.119453
v 1.202189 9.401519 -1.326064
v -0.321692 10.189736 1.232582
v -0.320067 10.189550 -1.303158
v 1.283971 10.134908 1.162727
v 1.287540 10.134500 -1.373296
v 1.344273 7.918570 0.878553
v 1.339540 9.941673 0.876577
v 1.344273 7.918570 -1.121447
v 1.299768 9.945302 -1.115439
v 1.710028 7.913804 0.872481
v 1.643858 9.934516 0.883872
v 1.710028 7.913804 -1.127519
v 1.597694 9.943557 -1.107484
v 1.000000 2.053350 0.925627
v 1.000000 0.053350 0.929008
v 1.000000 2.053350 -0.980476
v 1.000000 0.053350 -1.034536
v -1.000000 0.053350 -1.146169
v -1.000000 2.053350 -1.101180
v -1.000000 2.053350 0.960122
v -1.000000 0.053350 0.964713
vn -1.0000 -0.0000 -0.0000
vn -0.0000 -0.0000 -1.0000
vn 1.0000 -0.0000 -0.0000
vn -0.0000 -0.0000 1.0000
vn -0.0000 -1.0000 -0.0000
vn 0.9886 0.1505 -0.0000
vn 0.0003 0.2812 0.9596
vn -0.9886 0.1505 -0.0000
vn -0.0000 0.3242 0.9460
vn -0.0000 0.3242 -0.9460
vn 0.9355 -0.3533 0.0045
vn -0.0002 0.2809 -0.9597
vn 0.9919 0.1270 -0.0000
vn -0.9916 0.1290 -0.0000
vn -0.7762 -0.6304 -0.0065
vn -0.9952 0.0975 0.0014
vn 0.0173 -0.2619 0.9649
vn -0.0290 -0.3278 -0.9443
vn 0.3230 -0.0219 0.9462
vn 0.1910 0.0390 0.9808
vn 0.1289 0.0326 -0.9911
vn 0.9915 -0.1304 -0.0003
vn 0.9959 -0.0901 -0.0062
vn 0.2458 -0.0247 -0.9690
vn 0.9980 -0.0629 -0.0068
vn -1.0000 0.0088 -0.0007
vn 0.0342 0.9994 -0.0001
vn -0.6362 0.7715 -0.0005
vn 0.2286 0.3197 0.9195
vn 0.1480 0.3132 -0.9381
vn -0.9999 -0.0122 0.0100
vn 0.0029 0.0065 -1.0000
vn 0.9990 0.0441 -0.0115
vn -0.0019 -0.0024 1.0000
vn -0.0130 -0.9999 -0.0000
vn 0.0147 0.9999 0.0029
vn -0.0175 -0.0020 -0.9998
vn -0.0580 -0.0247 0.9980
vt 0.375000 0.000000
vt 0.625000 0.000000
vt 0.625000 0.057024
vt 0.375000 0.057614
vt 0.375000 0.250000
vt 0.625000 0.250000
vt 0.625000 0.500000
vt 0.375000 0.500000
vt 0.625000 0.570563
vt 0.375000 0.567562
vt 0.375000 0.750000
vt 0.625000 0.750000
vt 0.625000 1.000000
vt 0.375000 1.000000
vt 0.125000 0.500000
vt 0.125000 0.547539
vt 0.625000 0.676391
vt 0.625000 0.500000
vt 0.625000 0.750000
vt 0.625000 0.200808
vt 0.625000 0.750000
vt 0.625000 0.250000
vt 0.625000 0.000000
vt 0.625000 1.000000
vt 0.625000 0.500000
vt 0.875000 0.500000
vt 0.875000 0.750000
vt 0.375000 0.250000
vt 0.375000 0.500000
vt 0.375000 0.750000
vt 0.125000 0.750000
vt 0.875000 0.500000
vt 0.375000 0.676579
vt 0.000000 0.000000
vt 0.375000 0.202461
vt 0.125000 0.692386
s 0
usemtl Material.002
f 1/1/1 2/2/1 47/3/1 48/4/1
f 3/5/2 4/6/2 8/7/2 7/8/2
f 7/8/3 8/7/3 43/9/3 44/10/3
f 5/11/4 6/12/4 2/13/4 1/14/4
f 3/15/5 7/8/5 44/10/5 45/16/5
f 6/12/6 41/17/6 43/9/6 8/7/6 12/18/6 11/19/6
f 9/13/7 11/19/7 15/12/7 13/13/7
f 4/6/8 46/20/8 47/3/8 2/2/8 9/2/8 10/6/8
f 2/13/9 6/12/9 11/19/9 9/13/9
f 8/7/10 4/6/10 10/6/10 12/18/10
f 15/12/11 16/7/11 20/7/11 19/21/11
f 12/18/12 10/6/12 14/6/12 16/7/12
f 11/19/13 12/18/13 16/7/13 15/12/13
f 10/6/14 9/2/14 13/2/14 14/6/14
f 18/22/15 17/2/15 21/23/15 22/6/15
f 14/6/16 13/2/16 17/2/16 18/22/16
f 13/13/17 15/12/17 19/21/17 17/24/17
f 16/7/18 14/6/18 18/22/18 20/7/18
f 21/13/19 23/12/19 27/21/19 25/13/19
f 17/24/20 19/21/20 23/12/20 21/13/20
f 20/7/21 18/22/21 22/6/21 24/7/21
f 19/21/22 20/7/22 24/7/22 23/12/22
f 27/21/23 28/7/23 32/25/23 31/12/23
f 24/7/24 22/6/24 26/6/24 28/7/24
f 23/12/25 24/7/25 28/7/25 27/21/25
f 22/6/26 21/23/26 25/2/26 26/6/26
f 32/25/27 30/26/27 29/27/27 31/12/27
f 26/6/28 25/2/28 29/2/28 30/6/28
f 25/13/29 27/21/29 31/12/29 29/13/29
f 28/7/30 26/6/30 30/6/30 32/25/30
f 33/1/31 34/2/31 36/6/31 35/28/31
f 35/28/32 36/6/32 40/7/32 39/29/32
f 39/29/33 40/7/33 38/21/33 37/30/33
f 37/30/34 38/21/34 34/24/34 33/14/34
f 35/15/35 39/29/35 37/30/35 33/31/35
f 40/7/36 36/32/36 34/27/36 38/21/36
f 42/33/3 41/17/3 6/12/3 5/11/3
f 43/9/5 41/34/5 47/3/5 46/20/5
f 45/35/1 46/20/1 4/6/1 3/5/1
f 47/34/37 41/34/37 42/34/37 48/34/37
f 48/36/5 42/33/5 5/11/5 1/31/5
f 43/34/38 46/34/38 45/34/38 44/34/38
